<svg version="1.1" xmlns="http://www.w3.org/2000/svg" viewBox="0 0 702 658" width="1404" height="1316">
  <!-- svg-source:excalidraw -->
  
  <defs>
    <style class="style-fonts">
      @font-face {
        font-family: "Virgil";
        src: url("https://excalidraw.com/Virgil.woff2");
      }
      @font-face {
        font-family: "Cascadia";
        src: url("https://excalidraw.com/Cascadia.woff2");
      }
    </style>
  </defs>
  <rect x="0" y="0" width="702" height="658" fill="#ffffff"></rect><g stroke-linecap="round" transform="translate(12 233) rotate(0 337.5 141.5)"><path d="M32 0 M32 0 C168.83 1.02, 307.07 1.24, 643 0 M32 0 C269.19 1.62, 506.35 1.5, 643 0 M643 0 C664.23 -1.4, 676.6 9.67, 675 32 M643 0 C664.92 -0.27, 673.42 10.38, 675 32 M675 32 C673.66 98.08, 674.08 164.05, 675 251 M675 32 C676.66 103.02, 677.17 173.83, 675 251 M675 251 C674.24 271.71, 665.68 281.39, 643 283 M675 251 C676.57 274.62, 665.07 282.1, 643 283 M643 283 C472.86 283.19, 303.09 282.94, 32 283 M643 283 C427.26 283.17, 211.61 282.85, 32 283 M32 283 C10.33 283.02, -1.13 274.25, 0 251 M32 283 C11.21 284.58, 0.19 270.69, 0 251 M0 251 C0.22 166.24, 1.21 84.43, 0 32 M0 251 C-1.77 167.82, -0.82 84, 0 32 M0 32 C-0.22 10.91, 10.02 0.22, 32 0 M0 32 C-1.59 8.88, 9.04 -0.85, 32 0" stroke="#364fc7" stroke-width="1" fill="none"></path></g><g stroke-linecap="round" transform="translate(10 574) rotate(0 341 37)"><path d="M18.5 0 M18.5 0 C219.19 -0.9, 420.42 -0.58, 663.5 0 M18.5 0 C254.48 -1.48, 490.04 -0.93, 663.5 0 M663.5 0 C677.1 1.26, 682.31 5.02, 682 18.5 M663.5 0 C675.55 1.43, 683.38 8.13, 682 18.5 M682 18.5 C679.86 31.68, 683.54 42.09, 682 55.5 M682 18.5 C681.59 31.27, 682.57 43.94, 682 55.5 M682 55.5 C680.98 67.85, 676.13 74.92, 663.5 74 M682 55.5 C682.59 68.31, 675.13 74.14, 663.5 74 M663.5 74 C529.39 75.34, 395.9 75.16, 18.5 74 M663.5 74 C477.62 75.3, 292.1 75.17, 18.5 74 M18.5 74 C6.94 74.95, 1.42 68.71, 0 55.5 M18.5 74 C6.36 73.98, -0.07 66.96, 0 55.5 M0 55.5 C0.47 43.85, -0.72 33.98, 0 18.5 M0 55.5 C0.22 47.77, -0.68 40.06, 0 18.5 M0 18.5 C-1.37 7.16, 4.7 -0.73, 18.5 0 M0 18.5 C-0.59 7.43, 6.8 2.04, 18.5 0" stroke="#5f3dc4" stroke-width="1" fill="none"></path></g><g transform="translate(28 605) rotate(0 62 13)"><text x="0" y="18" font-family="Virgil, Segoe UI Emoji" font-size="20px" fill="#000000" text-anchor="start" style="white-space: pre;" direction="ltr">Web Browser</text></g><g transform="translate(54 483) rotate(0 62.5 13)"><text x="0" y="18" font-family="Virgil, Segoe UI Emoji" font-size="20px" fill="#000000" text-anchor="start" style="white-space: pre;" direction="ltr">Cloud Server</text></g><g stroke-linecap="round" transform="translate(446 13) rotate(0 54.5 90)"><path d="M27.25 0 M27.25 0 C44.31 -0.61, 60.75 -0.28, 81.75 0 M27.25 0 C39.72 0.66, 53.35 0.52, 81.75 0 M81.75 0 C101.21 -1.79, 107.3 10.42, 109 27.25 M81.75 0 C101.42 -0.05, 109.37 10.2, 109 27.25 M109 27.25 C111.19 63.68, 110.15 99.13, 109 152.75 M109 27.25 C109.25 53.84, 109.22 80.29, 109 152.75 M109 152.75 C108.15 169.33, 100.71 179.91, 81.75 180 M109 152.75 C107.94 171.58, 97.77 179.61, 81.75 180 M81.75 180 C65.82 181.23, 51.79 181.16, 27.25 180 M81.75 180 C67.21 180.24, 53.73 180.05, 27.25 180 M27.25 180 C7.12 181.64, -1.25 172.77, 0 152.75 M27.25 180 C8.44 179.66, -0.7 172.96, 0 152.75 M0 152.75 C-1.96 126.12, -2.36 97.01, 0 27.25 M0 152.75 C0.48 107.52, -1.25 62.74, 0 27.25 M0 27.25 C1.07 8.8, 7.26 -1.4, 27.25 0 M0 27.25 C-1.95 10.64, 10.14 1.05, 27.25 0" stroke="#d9480f" stroke-width="1" fill="none"></path></g><g stroke-linecap="round" transform="translate(557 350) rotate(0 56 74)"><path d="M28 0 M28 0 C48.9 -0.01, 71.11 1.46, 84 0 M28 0 C44.35 0.63, 62.2 0.89, 84 0 M84 0 C102.49 0.47, 111.85 8.54, 112 28 M84 0 C104.93 0.72, 113.91 7.15, 112 28 M112 28 C110.18 59.71, 109.62 92.57, 112 120 M112 28 C111.87 54.84, 110.71 83.11, 112 120 M112 120 C110.78 138.1, 101.49 148.94, 84 148 M112 120 C112.08 139, 102.86 147.12, 84 148 M84 148 C72.21 145.96, 59.89 146.25, 28 148 M84 148 C67.06 147.86, 50.01 148.7, 28 148 M28 148 C8.57 146.23, -0.8 140.01, 0 120 M28 148 C9.58 148.31, -1.07 138.76, 0 120 M0 120 C0.49 87.33, -1.15 53.53, 0 28 M0 120 C-0.46 95.46, -0.72 72.14, 0 28 M0 28 C0.79 9.5, 8.83 -0.66, 28 0 M0 28 C-1.36 9.4, 8.98 2.02, 28 0" stroke="#000000" stroke-width="1" fill="none"></path></g><g transform="translate(585 411) rotate(0 28 13)"><text x="28" y="18" font-family="Virgil, Segoe UI Emoji" font-size="20px" fill="#000000" text-anchor="middle" style="white-space: pre;" direction="ltr">EMQX</text></g><g stroke-linecap="round" transform="translate(372 261) rotate(0 113.5 37.5)"><path d="M18.75 0 M18.75 0 C78.02 -2.11, 139.3 0.38, 208.25 0 M18.75 0 C72.6 -1.28, 126.38 -2.57, 208.25 0 M208.25 0 C220.45 -1.95, 228.81 6.45, 227 18.75 M208.25 0 C218.62 0.58, 224.81 6.76, 227 18.75 M227 18.75 C225.51 33.72, 226.96 44.66, 227 56.25 M227 18.75 C226.8 33.49, 226.93 48.07, 227 56.25 M227 56.25 C227.54 70.55, 220.64 73.65, 208.25 75 M227 56.25 C226.21 67.34, 220.18 77.07, 208.25 75 M208.25 75 C148.74 73.72, 91.01 73.83, 18.75 75 M208.25 75 C149.1 74.07, 88.55 73.45, 18.75 75 M18.75 75 C7.82 73.61, -0.76 68.82, 0 56.25 M18.75 75 C4.62 73.44, -1.54 70.04, 0 56.25 M0 56.25 C0.57 48.09, 1.25 38.79, 0 18.75 M0 56.25 C0.1 45.87, -0.1 36.35, 0 18.75 M0 18.75 C1.53 4.33, 7.42 0.97, 18.75 0 M0 18.75 C1.01 4.57, 7.48 1.98, 18.75 0" stroke="#000000" stroke-width="1" fill="none"></path></g><g stroke-linecap="round" transform="translate(51 262) rotate(0 140 36)"><path d="M18 0 M18 0 C95.31 -2.33, 176.67 -0.66, 262 0 M18 0 C75.97 -0.62, 131.97 0.19, 262 0 M262 0 C275.35 1.37, 281.11 7.09, 280 18 M262 0 C272.75 1.75, 279.57 6.21, 280 18 M280 18 C278.61 26.27, 280.75 37.84, 280 54 M280 18 C280.04 28.02, 280.66 39.61, 280 54 M280 54 C281.18 64.39, 274.08 73.71, 262 72 M280 54 C280.02 66.22, 274.23 70.31, 262 72 M262 72 C191.6 73.54, 120.22 72.39, 18 72 M262 72 C173.08 72.38, 84.62 73, 18 72 M18 72 C6.71 73.23, 1.54 65.84, 0 54 M18 72 C5.06 71.77, -2.1 68.24, 0 54 M0 54 C-1.28 41.07, 0.1 33.45, 0 18 M0 54 C-0.99 43.41, 0.96 34.7, 0 18 M0 18 C0.57 6.08, 5.71 1.57, 18 0 M0 18 C1.41 7.53, 8.27 1.52, 18 0" stroke="#000000" stroke-width="1" fill="none"></path></g><g transform="translate(138 284) rotate(0 52 13)"><text x="0" y="18" font-family="Virgil, Segoe UI Emoji" font-size="20px" fill="#000000" text-anchor="start" style="white-space: pre;" direction="ltr">DataBase</text></g><g stroke-linecap="round" transform="translate(574 13) rotate(0 53 89.5)"><path d="M26.5 0 M26.5 0 C43.8 2.27, 61.81 0.56, 79.5 0 M26.5 0 C47.29 -0.89, 68.12 -0.37, 79.5 0 M79.5 0 C97.77 -1.54, 105.4 9.91, 106 26.5 M79.5 0 C96.6 -2.28, 105.76 10.29, 106 26.5 M106 26.5 C106.77 70.58, 106.54 115.1, 106 152.5 M106 26.5 C105.28 67.86, 104.6 108.67, 106 152.5 M106 152.5 C107.78 171.43, 95.35 180.97, 79.5 179 M106 152.5 C103.95 172.03, 97.3 177.1, 79.5 179 M79.5 179 C60.62 177.73, 42.28 178.86, 26.5 179 M79.5 179 C64.62 179.26, 51.23 178.1, 26.5 179 M26.5 179 C7.43 177.92, -0.83 168.3, 0 152.5 M26.5 179 C10.55 180.86, -2.15 168.66, 0 152.5 M0 152.5 C-1.33 102.16, 1.95 54.93, 0 26.5 M0 152.5 C-1.21 126.53, -0.61 101.47, 0 26.5 M0 26.5 C-1.71 9.37, 9.03 1.57, 26.5 0 M0 26.5 C-1.44 8.76, 8.67 1.27, 26.5 0" stroke="#d9480f" stroke-width="1" fill="none"></path></g><g stroke-linecap="round" transform="translate(589 149) rotate(0 39.5 18)"><path d="M9 0 M9 0 C29.63 -0.39, 52.21 -0.35, 70 0 M9 0 C31.8 -0.1, 55.6 -0.7, 70 0 M70 0 C77.77 -0.37, 79.87 2.75, 79 9 M70 0 C76.71 -1.17, 79.82 0.74, 79 9 M79 9 C80.47 13.03, 78.59 21.33, 79 27 M79 9 C78.48 13.09, 78.31 15.75, 79 27 M79 27 C80.17 31.34, 77.42 37.74, 70 36 M79 27 C77.67 33.62, 74.04 36.88, 70 36 M70 36 C56.17 36.51, 38.56 37.07, 9 36 M70 36 C52.32 36.39, 34.75 36.23, 9 36 M9 36 C1.98 35.83, 0.77 33.41, 0 27 M9 36 C5.27 34.2, 1.86 33.32, 0 27 M0 27 C-1.58 22.64, 1 17, 0 9 M0 27 C-0.73 21.42, 0.4 16.38, 0 9 M0 9 C-1.04 4.79, 3.58 -1.99, 9 0 M0 9 C0.67 3.59, 4.3 -1.13, 9 0" stroke="#000000" stroke-width="1" fill="none"></path></g><g transform="translate(613.5 154) rotate(0 15 13)"><text x="15" y="18" font-family="Virgil, Segoe UI Emoji" font-size="20px" fill="#000000" text-anchor="middle" style="white-space: pre;" direction="ltr">ncp</text></g><g stroke-linecap="round"><g transform="translate(637 185) rotate(0 1.3806227447930155 83.23416606783869)"><path d="M0.33 -0.83 C0.59 27.24, 1.12 139.24, 1.35 167.3 M-0.96 1.35 C-0.28 29.13, 3.43 137.98, 3.72 165.33" stroke="#0b7285" stroke-width="1" fill="none"></path></g></g><mask></mask><g stroke-linecap="round"><g transform="translate(503 185) rotate(0 63.59906442734416 82.34291008114816)"><path d="M0.42 -0.78 C19.55 13.45, 93.47 58.16, 114.57 85.86 C135.68 113.57, 125.1 152.29, 127.04 165.46 M-0.81 1.43 C18.22 15.28, 92.74 57.2, 113.92 84.19 C135.11 111.18, 124.27 149.73, 126.3 163.37" stroke="#0b7285" stroke-width="1" fill="none"></path></g></g><mask></mask><g transform="translate(475 34) rotate(0 23.5 13)"><text x="0" y="18" font-family="Virgil, Segoe UI Emoji" font-size="20px" fill="#000000" text-anchor="start" style="white-space: pre;" direction="ltr">Edge</text></g><g transform="translate(607 35) rotate(0 23.5 13)"><text x="0" y="18" font-family="Virgil, Segoe UI Emoji" font-size="20px" fill="#000000" text-anchor="start" style="white-space: pre;" direction="ltr">Edge</text></g><g stroke-linecap="round"><g transform="translate(390 498) rotate(0 0.81827671097642 42.133911150726476)"><path d="M0.81 0.61 C1.29 14.5, 1.99 70.57, 1.85 84.38 M-0.23 -0.11 C0.26 13.93, 0.92 68.36, 1.34 82.45" stroke="#0b7285" stroke-width="1" fill="none"></path></g></g><mask></mask><g stroke-linecap="round"><g transform="translate(616 497) rotate(0 0.01479422485493842 42.782460205438525)"><path d="M0.6 1.01 C0.64 15.37, 0.36 71.1, 0.37 85.06 M-0.54 0.5 C-0.65 14.64, -0.51 69.76, -0.38 83.5" stroke="#0b7285" stroke-width="1" fill="none"></path></g></g><mask></mask><g stroke-linecap="round" transform="translate(316 10) rotate(0 56 92)"><path d="M28 0 M28 0 C50.72 -0.04, 69.18 -0.65, 84 0 M28 0 C46.21 -0.46, 63.56 -0.24, 84 0 M84 0 C102.79 -1.3, 111.72 8.02, 112 28 M84 0 C100.6 0.53, 114 11.32, 112 28 M112 28 C111.29 74.01, 110.68 116.44, 112 156 M112 28 C111.93 73.69, 112.49 121.16, 112 156 M112 156 C113.33 172.9, 102.12 182.44, 84 184 M112 156 C111.01 175.87, 101.2 181.82, 84 184 M84 184 C66.21 182.47, 49.55 185.28, 28 184 M84 184 C66.31 184.86, 49.62 185.16, 28 184 M28 184 C10.95 182.67, -0.63 174.42, 0 156 M28 184 C9.43 184.72, -0.86 173.17, 0 156 M0 156 C-0.05 126.48, -0.65 95.84, 0 28 M0 156 C1.84 128.95, 1.48 103.68, 0 28 M0 28 C-0.35 10.58, 8.37 1.47, 28 0 M0 28 C0.59 10.09, 11.3 0.65, 28 0" stroke="#d9480f" stroke-width="1" fill="none"></path></g><g transform="translate(354.5 33) rotate(0 23.5 13)"><text x="0" y="18" font-family="Virgil, Segoe UI Emoji" font-size="20px" fill="#000000" text-anchor="start" style="white-space: pre;" direction="ltr">Edge</text></g><g stroke-linecap="round"><g transform="translate(374.4009355726557 180.65708991887126) rotate(0 121.07028301340978 82.95963688629172)"><path d="M-0.32 -1 C35.16 10.4, 172.37 40.92, 212.83 68.76 C253.3 96.61, 237.73 149.9, 242.46 166.08 M1.72 1.09 C37.05 12.56, 171.85 42.06, 211.94 69.7 C252.03 97.34, 237.36 150.81, 242.26 166.92" stroke="#0b7285" stroke-width="1" fill="none"></path></g></g><mask></mask><g stroke-linecap="round" transform="translate(464.5 146) rotate(0 39.5 18)"><path d="M9 0 M9 0 C27.42 -0.5, 47.34 -1.93, 70 0 M9 0 C24.37 -0.52, 40.1 -1.5, 70 0 M70 0 C76.56 -1.09, 77.01 3.86, 79 9 M70 0 C75.67 -1.31, 76.9 4.48, 79 9 M79 9 C77.28 13.92, 80.47 19.33, 79 27 M79 9 C78.53 16.92, 79.58 22.54, 79 27 M79 27 C80.22 32.81, 74.09 35.59, 70 36 M79 27 C78.33 33.2, 77.21 36.09, 70 36 M70 36 C46.27 37.32, 22.93 36.24, 9 36 M70 36 C52.9 36.76, 35.58 36.26, 9 36 M9 36 C3.63 35.64, 0.11 32.05, 0 27 M9 36 C3.04 36.83, -1.6 31.09, 0 27 M0 27 C-0.33 22.01, 0.72 18.94, 0 9 M0 27 C0.67 23.13, 0.17 17.39, 0 9 M0 9 C0.89 1.64, 3.77 -1.64, 9 0 M0 9 C2.15 4.77, 2.68 2.3, 9 0" stroke="#000000" stroke-width="1" fill="none"></path></g><g transform="translate(489 151) rotate(0 15 13)"><text x="15" y="18" font-family="Virgil, Segoe UI Emoji" font-size="20px" fill="#000000" text-anchor="middle" style="white-space: pre;" direction="ltr">ncp</text></g><g stroke-linecap="round" transform="translate(335.5 144) rotate(0 39.5 18)"><path d="M9 0 M9 0 C27.53 -1.46, 49.56 -0.06, 70 0 M9 0 C22.24 1.16, 36.85 1.19, 70 0 M70 0 C77.58 0.74, 78.01 3.89, 79 9 M70 0 C74.43 0.88, 77.12 5.15, 79 9 M79 9 C77.98 16.71, 78.95 22.94, 79 27 M79 9 C78.78 13.15, 78.2 17.39, 79 27 M79 27 C80.15 31.92, 75.17 35.65, 70 36 M79 27 C81.28 32.2, 74.42 34.55, 70 36 M70 36 C54.34 35.4, 41.35 38.25, 9 36 M70 36 C51.56 36.34, 32.82 35.38, 9 36 M9 36 C3.38 37.58, 0.06 32.07, 0 27 M9 36 C1.66 34.26, 2.2 31.86, 0 27 M0 27 C-0.63 18.96, 1.42 12.41, 0 9 M0 27 C0.65 22.4, 0.78 16.15, 0 9 M0 9 C0.57 4.8, 1.89 -1.15, 9 0 M0 9 C1.53 4.83, 0.99 -1.66, 9 0" stroke="#000000" stroke-width="1" fill="none"></path></g><g transform="translate(360 149) rotate(0 15 13)"><text x="15" y="18" font-family="Virgil, Segoe UI Emoji" font-size="20px" fill="#000000" text-anchor="middle" style="white-space: pre;" direction="ltr">ncp</text></g><g transform="translate(464 287) rotate(0 26 13)"><text x="0" y="18" font-family="Virgil, Segoe UI Emoji" font-size="20px" fill="#000000" text-anchor="start" style="white-space: pre;" direction="ltr">Redis</text></g><g stroke-linecap="round" transform="translate(225 581) rotate(0 227 30)"><path d="M15 0 M15 0 C110.76 0.88, 207.18 1.18, 439 0 M15 0 C110.63 2.05, 207.71 1.58, 439 0 M439 0 C449.35 1.66, 452.83 6.12, 454 15 M439 0 C449.1 -1.55, 454.06 2.91, 454 15 M454 15 C452.28 20.1, 455.02 30.94, 454 45 M454 15 C453.65 23.22, 454.54 32.78, 454 45 M454 45 C452.04 56.75, 447.7 59.13, 439 60 M454 45 C451.87 55.59, 450.92 62.28, 439 60 M439 60 C320.58 57.47, 203.23 58.65, 15 60 M439 60 C296.43 60.28, 153.99 60.72, 15 60 M15 60 C5.49 61.05, -1.55 56.2, 0 45 M15 60 C6.15 57.72, 2.05 55.83, 0 45 M0 45 C-2.05 33.49, -0.57 27.36, 0 15 M0 45 C0.67 37.59, -0.12 30.66, 0 15 M0 15 C-0.9 4.48, 3.09 0.17, 15 0 M0 15 C-2 4.86, 5.67 -2.28, 15 0" stroke="#000000" stroke-width="1" fill="none"></path></g><g transform="translate(421 598) rotate(0 22.5 13)"><text x="0" y="18" font-family="Virgil, Segoe UI Emoji" font-size="20px" fill="#000000" text-anchor="start" style="white-space: pre;" direction="ltr">sdwc</text></g><g stroke-linecap="round" transform="translate(226 351) rotate(0 162.5 73.5)"><path d="M32 0 M32 0 C87.79 0.01, 139.91 -2.37, 293 0 M32 0 C116.69 1.78, 200.26 2.23, 293 0 M293 0 C314.62 -1.07, 326.47 9.2, 325 32 M293 0 C312.59 -1.4, 324.75 10.15, 325 32 M325 32 C322.86 62.03, 324.26 87.27, 325 115 M325 32 C324.5 49.5, 325.02 66.26, 325 115 M325 115 C323.94 134.82, 312.36 146.49, 293 147 M325 115 C324.77 138.32, 313.26 147.27, 293 147 M293 147 C233.36 147.84, 171.88 147.03, 32 147 M293 147 C223.39 147.72, 152.04 147.38, 32 147 M32 147 C11.38 147.62, -0.89 134.44, 0 115 M32 147 C10.48 148.28, -1.09 137.33, 0 115 M0 115 C1.74 80.7, -1.38 48.11, 0 32 M0 115 C-1.27 83.51, -0.48 51.34, 0 32 M0 32 C-0.88 11.33, 10.5 1.59, 32 0 M0 32 C0.35 9.61, 11.85 1.72, 32 0" stroke="#000000" stroke-width="1" fill="none"></path></g><g transform="translate(356 410) rotate(0 22 13)"><text x="0" y="18" font-family="Virgil, Segoe UI Emoji" font-size="20px" fill="#000000" text-anchor="start" style="white-space: pre;" direction="ltr">gosd</text></g></svg>